<?xml version="1.0" encoding="utf-8"?>
<!-- Generator: Adobe Illustrator 16.0.0, SVG Export Plug-In . SVG Version: 6.00 Build 0)  -->
<!DOCTYPE svg PUBLIC "-//W3C//DTD SVG 1.1//EN" "http://www.w3.org/Graphics/SVG/1.1/DTD/svg11.dtd">
<svg version="1.1" id="Layer_1" xmlns="http://www.w3.org/2000/svg" xmlns:xlink="http://www.w3.org/1999/xlink" x="0px" y="0px"
	 width="50px" height="50px" enable-background="new 0 0 50 50" xml:space="preserve">
<g>
	<g>
		<path fill="rgba(255,255,255,1)" d="M35.855,12.862c0.143-0.388,0.471-0.675,0.996-0.873c0.357-0.129,0.818-0.244,1.378-0.354
			c0.568-0.104,1.056-0.169,1.446-0.198V9.931H25.759c-1.277,0-2.473,0.129-3.586,0.391c-1.123,0.261-2.139,0.68-3.042,1.263
			c-0.879,0.568-1.582,1.309-2.104,2.219c-0.527,0.919-0.784,2.018-0.784,3.304c0,1.16,0.177,2.192,0.524,3.08
			c0.359,0.893,0.888,1.668,1.577,2.316c0.639,0.612,1.4,1.14,2.292,1.587c0.896,0.448,1.877,0.821,2.96,1.134
			c-1.49,1.971-2.728,3.628-3.708,4.971c-0.992,1.344-2.197,2.98-3.627,4.908c-0.62,0.851-1.187,1.479-1.69,1.885
			c-0.498,0.4-1.002,0.729-1.497,0.984c-0.363,0.186-0.827,0.326-1.378,0.424c-0.554,0.098-1.015,0.158-1.388,0.17v1.51h8.121
			c1.804-2.818,3.429-5.254,4.877-7.309c1.451-2.055,3.027-4.17,4.721-6.35h3.09v9.559c0,0.498-0.077,0.934-0.23,1.305
			c-0.16,0.375-0.493,0.662-1.002,0.861c-0.254,0.096-0.699,0.188-1.341,0.277c-0.633,0.086-1.177,0.135-1.613,0.146v1.51h12.745
			v-1.51c-0.338-0.025-0.829-0.074-1.471-0.146c-0.647-0.072-1.097-0.166-1.354-0.277c-0.426-0.182-0.729-0.451-0.918-0.809
			c-0.199-0.355-0.291-0.807-0.291-1.357V14.176C35.643,13.68,35.711,13.244,35.855,12.862z M31.117,24.585h-2.786
			c-1.958,0-3.581-0.62-4.887-1.875c-1.306-1.251-1.955-2.954-1.955-5.101c0-1.826,0.522-3.27,1.572-4.338
			c1.052-1.071,2.529-1.602,4.443-1.602h3.613V24.585z"/>
	</g>
	<path fill="rgba(255,255,255,1)" d="M0,0.001v49.997h50V0.001H0z M47.074,47.074H2.91V2.926h44.165V47.074z"/>
</g>
</svg>
